<?xml version="1.0" encoding="UTF-8"?>
<svg width="752pt" height="752pt" version="1.1" viewBox="0 0 752 752" xmlns="http://www.w3.org/2000/svg">
 <path d="m570.64 156.73c-5.2109-5.2109-14.207-4.7344-18.469 1.4219l-113.66 155.8-51.148 68.195-37.887-50.672c16.574-15.629 19.418-41.676 5.6836-60.617l-82.875-114.13c-4.2617-6.1562-13.262-7.5781-19.418-2.8398-6.1562 4.2617-7.5781 13.262-2.8398 19.418l68.195 93.77c1.8945 2.8398 1.4219 6.6289-1.4219 8.9961l-11.84 8.5234c-2.8398 1.8945-6.6289 1.4219-8.9961-1.4219l-68.199-94.242c-4.2617-6.1562-13.262-7.5781-19.418-2.8398-6.1562 4.2617-7.5742 13.258-2.8398 19.414l68.195 93.77c1.8945 2.8398 1.4219 6.6289-1.4219 8.9961l-11.84 8.5234c-2.8398 1.8945-6.6289 1.4219-8.9961-1.4219l-68.195-93.766c-4.2617-6.1562-13.262-7.5781-19.418-2.8398-6.1562 4.2617-7.5781 13.262-2.8398 19.418l82.402 113.66c14.207 19.418 40.727 24.625 61.094 12.312l46.41 66.301-89.508 119.34c-10.891 14.207-7.5781 34.57 6.6289 44.988 14.207 10.418 34.57 7.1055 44.988-7.5781l74.352-105.61 74.352 105.61c10.418 14.68 30.309 17.996 44.988 7.5781 14.207-10.418 17.523-30.781 6.6289-44.988l-89.973-119.34 30.309-43.098 10.418 7.5781c17.996 12.785 43.098 8.0508 54.934-10.418l25.102-39.309c21.785-34.098 37.414-71.039 46.883-109.87 7.582-28.414-0.46875-58.25-20.359-78.613z" fill="#fffd70"/>
</svg>
